<?xml version="1.0" encoding="utf-8"?>
<!-- Generator: Adobe Illustrator 24.3.0, SVG Export Plug-In . SVG Version: 6.00 Build 0)  -->
<svg version="1.1" id="Layer_1" xmlns="http://www.w3.org/2000/svg" xmlns:xlink="http://www.w3.org/1999/xlink" x="0px" y="0px"
	 viewBox="0 0 1451.3 1451.3" style="enable-background:new 0 0 1451.3 1451.3;" xml:space="preserve">
<style type="text/css">
	.st0{fill:none;stroke:#292845;stroke-width:40;stroke-linejoin:round;stroke-miterlimit:10;}
	.st1{fill:none;stroke:#292845;stroke-width:40;stroke-linejoin:round;stroke-miterlimit:9.9994;}
	.st2{fill:none;stroke:#292845;stroke-width:40;stroke-linecap:round;stroke-linejoin:round;stroke-miterlimit:10;}
	.st3{fill:none;stroke:#292845;stroke-width:40;stroke-linecap:round;stroke-miterlimit:10;}
</style>
<g id="_x31_2month">
	<g>
		<g>
			<path class="st0" d="M1283.9,330.5l26.9-23.5l-30.3-16.8c-10.1-6.7-16.8-20.2-10.1-30.3l13.5-33.6l-37-3.4
				c-13.5,0-23.5-10.1-23.5-23.5l-3.4-33.6l-33.6,13.5c-13.5,3.4-26.9,0-30.3-10.1l-16.8-30.3l-23.5,26.9
				c-10.1,10.1-23.5,10.1-33.6,3.4l-30.3-20.2l-10.1,33.6c-3.4,13.5-16.8,20.2-26.9,16.8l-33.6-6.7l6.7,33.6
				c3.4,13.5-6.7,23.5-16.8,26.9l-33.6,10.1l20.2,30.3c6.7,10.1,6.7,23.5-3.4,33.6l-26.9,23.5l30.3,16.8
				c10.1,6.7,16.8,20.2,10.1,30.3l-13.5,33.6l37,3.4c13.5,0,23.5,10.1,23.5,23.5l3.4,33.6l33.6-13.5c13.5-3.4,26.9,0,30.3,10.1
				l16.8,30.3l23.5-26.9c10.1-10.1,23.5-10.1,33.6-3.4l30.3,20.2l10.1-33.6c3.4-13.5,16.8-20.2,26.9-16.8l33.6,6.7l-6.7-33.6
				c-3.4-13.5,6.7-23.5,16.8-26.9l33.6-10.1l-20.2-30.3C1270.5,354,1273.9,340.6,1283.9,330.5z"/>
			<ellipse class="st1" cx="1115.4" cy="330.9" rx="111" ry="111"/>
		</g>
		<g>
			<line class="st2" x1="1142.7" y1="1127.6" x2="1142.7" y2="935.9"/>
			<polyline class="st2" points="1092.2,972.9 1142.7,1023.3 1196.5,972.9 			"/>
			<line class="st2" x1="1142.7" y1="1127.6" x2="1142.7" y2="1319.3"/>
			<polyline class="st2" points="1092.2,1285.6 1142.7,1231.8 1196.5,1285.6 			"/>
			<line class="st2" x1="1142.7" y1="1127.6" x2="977.9" y2="1033.4"/>
			<polyline class="st2" points="984.6,1093.9 1055.3,1077.1 1035.1,1006.5 			"/>
			<line class="st2" x1="1142.7" y1="1127.6" x2="1310.9" y2="1221.7"/>
			<polyline class="st2" points="1253.7,1252 1233.5,1181.4 1304.1,1161.2 			"/>
			<line class="st2" x1="1142.7" y1="1127.6" x2="1310.9" y2="1033.4"/>
			<polyline class="st2" points="1304.1,1093.9 1233.5,1077.1 1253.7,1006.5 			"/>
			<line class="st2" x1="1142.7" y1="1127.6" x2="977.9" y2="1221.7"/>
			<polyline class="st2" points="1035.1,1252 1055.3,1181.4 984.6,1161.2 			"/>
		</g>
		<g>
			<path class="st2" d="M355.7,1215c-13.5,0-23.5,10.1-23.5,23.5c0,16.8,16.8,33.6,37,33.6c26.9,0,43.7-20.2,43.7-47.1
				c0-37-26.9-74-90.8-74H123.7"/>
			<path class="st2" d="M480.2,1023.3c-13.5,0-23.5-10.1-23.5-23.5c0-16.8,13.5-33.6,33.6-33.6c26.9,0,47.1,20.2,47.1,47.1
				c0,37-26.9,67.3-80.7,67.3H248.1"/>
			<path class="st2" d="M349,946c-13.5,0-23.5-10.1-23.5-23.5c0-16.8,13.5-33.6,30.3-33.6c26.9,0,47.1,20.2,47.1,43.7
				c0,37-23.5,70.6-84.1,70.6h-148"/>
		</g>
		<g>
			<g>
				<path class="st3" d="M540.7,145.5c-97.5-23.5-208.5,3.4-285.9,80.7c-74,77.4-100.9,188.3-80.7,285.9
					c97.5,23.5,208.5-3.4,285.9-80.7c33.6-33.6,57.2-70.6,70.6-114.3"/>
				<path class="st3" d="M507.1,313.7c6.7-20.2,10.1-43.7,13.5-63.9c3.4-26.9,0-50.4-6.7-77.4"/>
				<line class="st3" x1="537.3" y1="152.3" x2="174.1" y2="512.1"/>
				<line class="st3" x1="530.6" y1="317.1" x2="369.2" y2="317.1"/>
				<line class="st3" x1="312" y1="374.2" x2="312" y2="189.3"/>
				<line class="st3" x1="466.7" y1="421.3" x2="268.3" y2="421.3"/>
			</g>
		</g>
		<line class="st2" x1="725.7" y1="48" x2="725.7" y2="1403.3"/>
		<line class="st2" x1="1401.7" y1="683.6" x2="49.7" y2="683.6"/>
	</g>
</g>
</svg>
