<?xml version="1.0" encoding="utf-8"?>
<!-- Generator: Adobe Illustrator 24.3.0, SVG Export Plug-In . SVG Version: 6.00 Build 0)  -->
<svg version="1.1" id="Layer_1" xmlns="http://www.w3.org/2000/svg" xmlns:xlink="http://www.w3.org/1999/xlink" x="0px" y="0px"
	 viewBox="0 0 1451.3 1451.3" style="enable-background:new 0 0 1451.3 1451.3;" xml:space="preserve">
<style type="text/css">
	.st0{fill:#292845;stroke:#292845;stroke-width:10;stroke-miterlimit:10;}
	.st1{fill:#292845;stroke:#010101;stroke-miterlimit:10;}
</style>
<g id="Guarantee">
	<g>
		<g>
			<path class="st0" d="M1026.4,902.4H414.8c-8.9,0-16.1-7.2-16.1-16.1v-707c0-8.9,7.2-16.1,16.1-16.1h611.6
				c8.9,0,16.1,7.2,16.1,16.1v707C1042.4,895.2,1035.3,902.4,1026.4,902.4z M430.9,870.3h579.4V195.4H430.9V870.3z"/>
		</g>
		<g>
			<path class="st0" d="M1026.4,189.7c-3.2,0-6.4-1-9.3-3c-1.3-0.9-132.7-92.4-275.7-91c-175.4-1.6-316.6,86.3-318,87.2
				c-7.5,4.7-17.4,2.5-22.1-5s-2.5-17.4,5-22.1c6-3.8,148-92.1,330.6-92.1c1.5,0,3,0,4.5,0c153.6-1.6,288.6,92.9,294.3,96.9
				c7.2,5.1,9,15.1,3.8,22.4C1036.4,187.4,1031.4,189.7,1026.4,189.7z"/>
		</g>
		<g>
			<path class="st0" d="M720.6,991.4c-214,0-311.9-78.4-316-81.7c-6.9-5.6-7.8-15.7-2.2-22.6c5.6-6.8,15.7-7.8,22.6-2.2l0,0
				c0.9,0.7,94.2,74.5,295.6,74.5c195.5,0,295-74,296-74.8c7-5.4,17.1-4,22.5,3s4.1,17.1-3,22.5
				C1031.8,913.3,927.9,991.4,720.6,991.4z"/>
		</g>
		<g>
			<path class="st0" d="M721.7,603.2c-73,0-132.4-59.4-132.4-132.4s59.4-132.4,132.4-132.4s132.4,59.4,132.4,132.4
				S794.7,603.2,721.7,603.2z M721.7,370.4c-55.3,0-100.3,45-100.3,100.3S666.4,571,721.7,571S822,526,822,470.7
				S777,370.4,721.7,370.4z"/>
		</g>
		<g>
			<path class="st0" d="M720.5,820.5c-35.7,0-64.7-29-64.7-64.7s29-64.7,64.7-64.7s64.7,29,64.7,64.7S756.1,820.5,720.5,820.5z
				 M720.5,723.2c-18,0-32.6,14.6-32.6,32.6s14.6,32.6,32.6,32.6s32.6-14.6,32.6-32.6S738.4,723.2,720.5,723.2z"/>
		</g>
		<g>
			<path class="st0" d="M721.7,486.8c-5,0-10-2.4-13.1-6.8l-38.7-54.9c-5.1-7.3-3.4-17.3,3.9-22.4c7.3-5.1,17.3-3.4,22.4,3.9
				l38.7,54.9c5.1,7.3,3.4,17.3-3.9,22.4C728.1,485.9,724.9,486.8,721.7,486.8z"/>
		</g>
		<g>
			<path class="st0" d="M588.3,1110.3c-8.9,0-16.1-4.2-16.1-9.4V963.6c0-5.2,7.2-9.4,16.1-9.4c8.9,0,16.1,4.2,16.1,9.4v137.3
				C604.4,1106.1,597.2,1110.3,588.3,1110.3z"/>
		</g>
		<g>
			<path class="st0" d="M861.6,1110.3c-8.9,0-16.1-4.2-16.1-9.4V953.4c0-5.2,7.2-9.4,16.1-9.4s16.1,4.2,16.1,9.4v147.5
				C877.6,1106.1,870.4,1110.3,861.6,1110.3z"/>
		</g>
		<g>
			<g>
				<path class="st0" d="M514.6,1149.6c-8.9,0-16.1-7.2-16.1-16.1v-69.4c0-8.9,7.2-16.1,16.1-16.1c8.9,0,16.1,7.2,16.1,16.1v69.4
					C530.7,1142.4,523.5,1149.6,514.6,1149.6z"/>
			</g>
			<g>
				<path class="st0" d="M579.7,1114.9h-65.1c-8.9,0-16.1-7.2-16.1-16.1s7.2-16.1,16.1-16.1h65.1c8.9,0,16.1,7.2,16.1,16.1
					C595.7,1107.7,588.5,1114.9,579.7,1114.9z"/>
			</g>
		</g>
		<g>
			<g>
				<path class="st0" d="M935.3,1149.6c-8.9,0-16.1-7.2-16.1-16.1v-69.4c0-8.9,7.2-16.1,16.1-16.1c8.9,0,16.1,7.2,16.1,16.1v69.4
					C951.4,1142.4,944.2,1149.6,935.3,1149.6z"/>
			</g>
			<g>
				<path class="st0" d="M935.3,1114.9h-65.1c-8.9,0-16.1-7.2-16.1-16.1s7.2-16.1,16.1-16.1h65.1c8.9,0,16.1,7.2,16.1,16.1
					C951.4,1107.7,944.2,1114.9,935.3,1114.9z"/>
			</g>
		</g>
	</g>
	<polygon class="st1" points="255.8,1172.7 281.8,1229.5 346.8,1238.8 297.8,1281.9 312,1345.9 255.8,1314.3 199.6,1345.9 
		213.8,1281.9 164.9,1238.8 229.8,1229.5 	"/>
	<polygon class="st1" points="937.4,1172.7 963.4,1229.5 1028.3,1238.8 979.4,1281.9 993.6,1345.9 937.4,1314.3 881.2,1345.9 
		895.4,1281.9 846.4,1238.8 911.3,1229.5 	"/>
	<polygon class="st1" points="710.2,1172.7 736.2,1229.5 801.1,1238.8 752.2,1281.9 766.4,1345.9 710.2,1314.3 654,1345.9 
		668.2,1281.9 619.2,1238.8 684.2,1229.5 	"/>
	<polygon class="st1" points="483,1172.7 509,1229.5 574,1238.8 525,1281.9 539.2,1345.9 483,1314.3 426.8,1345.9 441,1281.9 
		392,1238.8 457,1229.5 	"/>
	<polygon class="st1" points="1164.6,1172.7 1190.6,1229.5 1255.5,1238.8 1206.5,1281.9 1220.7,1345.9 1164.6,1314.3 1108.4,1345.9 
		1122.6,1281.9 1073.6,1238.8 1138.5,1229.5 	"/>
</g>
</svg>
